# xmcd CD database file
#
# Track frame offsets:
#	187
#	22045
#	55972
#	85722
#	102742
#	134407
#	156262
#	181130
#	208392
#	234105
#	254595
#
# Disc length: 3636 seconds
#
# Revision: 1
# Processed by: cddbd v1.5.1PL0 Copyright (c) Steve Scherf et al.
# Submitted via: CDex 1.51
#
DISCID=9a0e320b
DTITLE=中川昌三 - Summer Sketch
DYEAR=1989
DGENRE=Jazz
TTITLE0=On Wings Of Song
TTITLE1="Barcarolle" From The Seasons
TTITLE2="Connais-tu Le Pays?" From Mignon
TTITLE3="Chanon Boheme" From Carmen
TTITLE4="Air" From Suite No.3
TTITLE5=Symphony No.5 In C Sharp Minor
TTITLE6=Moment Musical No.3
TTITLE7=Impromptu Op.34
TTITLE8=Elegie
TTITLE9="La Styrienne" From 25 Etudes Op.100
TTITLE10=Sonate Op.49-1
EXTD=YEAR: 1989
EXTT0=
EXTT1=
EXTT2=
EXTT3=
EXTT4=
EXTT5=
EXTT6=
EXTT7=
EXTT8=
EXTT9=
EXTT10=
PLAYORDER=
